<?xml version="1.0" encoding="utf-8"?>
<!-- Generator: Adobe Illustrator 24.2.3, SVG Export Plug-In . SVG Version: 6.00 Build 0)  -->
<svg version="1.1" id="Layer_1" xmlns="http://www.w3.org/2000/svg" xmlns:xlink="http://www.w3.org/1999/xlink" x="0px" y="0px"
	 viewBox="0 0 162.4 209.9" style="enable-background:new 0 0 162.4 209.9;" xml:space="preserve">
<style type="text/css">
	.st0{fill:#7A0EE7;}
</style>
<g id="Layer_2_1_">
	<g id="Layer_1-2">
		<g>
			<polygon class="st0" points="115.3,119.5 115.3,129.6 55.4,129.5 55.1,119.4 61.4,119.4 61.4,76.1 71.7,76.1 71.7,119.4 
				73.9,119.4 74,82.1 84.1,82.1 84.1,119.4 86.4,119.4 86.4,69.5 96.5,69.5 96.5,119.5 99.1,119.5 99.1,82.1 108.9,82.1 
				109.2,119.4 			"/>
		</g>
		<g>
			<path class="st0" d="M85.2,47.8C55.9,47.8,32,71.6,32,101c0,29.4,23.9,53.2,53.2,53.2s53.2-23.9,53.2-53.2
				C138.5,71.6,114.6,47.8,85.2,47.8z M115.9,131.6c-8.2,8.2-19,12.7-30.6,12.7c0,0,0,0,0,0C61.4,144.3,42,124.9,42,101
				c0-23.8,19.4-43.2,43.3-43.3h0c23.8,0,43.3,19.4,43.3,43.3C128.5,112.5,124,123.4,115.9,131.6z"/>
		</g>
		<g>
			<path class="st0" d="M159,4.1C158.9,4.1,158.9,4.1,159,4.1C156.9,2,154.1,1,150.3,1H17.8c-1.3,0-2.4,1.1-2.4,2.4v12.9H2.4
				c-1.3,0-2.4,1.1-2.4,2.4v188.3c0,1.3,1.1,2.4,2.4,2.4h142.2c1.3,0,2.4-1.1,2.4-2.4v-12.9h5.3c1.3,0,2.4-1.1,2.4-2.4V25.1h5.3
				c1.3,0,2.4-1.1,2.4-2.4v-3.9C162.4,13,162.5,7.7,159,4.1z M8.7,200.8V25.1h6.6v166.6c0,1.3,1.1,2.4,2.4,2.4h120.5l0,6.6H8.7z
				 M24.1,185.4V9.7h121.8v12.7c0,0.2,0,0.3,0,0.5l0,162.5H24.1z M156.1,18.7v0.1h-3.9V7.5c0.8,0.1,1.6,0.5,2.2,1.1
				C156.2,10.2,156.1,14.2,156.1,18.7z"/>
		</g>
	</g>
</g>
</svg>
