<?xml version="1.0" encoding="utf-8"?>
<!-- Generator: Adobe Illustrator 24.2.3, SVG Export Plug-In . SVG Version: 6.00 Build 0)  -->
<svg version="1.1" id="Layer_1" xmlns="http://www.w3.org/2000/svg" xmlns:xlink="http://www.w3.org/1999/xlink" x="0px" y="0px"
	 viewBox="0 0 159.5 192.5" style="enable-background:new 0 0 159.5 192.5;" xml:space="preserve">
<style type="text/css">
	.st0{fill:#7A0EE7;}
</style>
<g id="Layer_2_1_">
	<g id="Layer_1-2">
		<g>
			<path class="st0" d="M107.1,190.2H59.9c-5.5,0-9.7-2.9-9.7-6.7s4.2-6.7,9.7-6.7h40.5c1.2,0.1,2.5-0.2,3.5-0.9
				c-1.1-0.6-2.3-0.9-3.5-0.9H59.9c-5.5,0-9.7-2.9-9.7-6.7s4.2-6.7,9.7-6.7h40.5c1.4,0.1,2.7-0.3,3.8-1.1v-0.6h-51V154h56.9v6.7
				c0,3.8-4.2,6.7-9.7,6.7H59.9c-1.2-0.1-2.5,0.2-3.5,0.9c1.1,0.6,2.3,0.9,3.5,0.9h40.5c5.5,0,9.7,2.9,9.7,6.7s-4.2,6.7-9.7,6.7
				H59.9c-1.2-0.1-2.5,0.2-3.5,0.9c1.1,0.6,2.3,0.9,3.5,0.9h47.2V190.2z"/>
		</g>
		<g>
			<path class="st0" d="M111.7,149.9H50v-17.4c0-3.1,0-4.2-0.4-5c-0.6-1.1-2.3-2.9-5.2-5.7c-17.2-17.2-22.5-41-13.8-62
				c8.3-19.9,27.5-32.3,50.3-32.3c21,0,40,13.4,48.6,34.1c8.8,21.3,4.3,43.8-12.2,60.3c-2.9,2.9-4.6,4.6-5.2,5.7
				c-0.4,0.8-0.4,2-0.4,5V149.9z M57.8,142.1h46.1v-9.6c0-8.1,0.7-9,7.9-16.3c14.1-14.1,18-33.5,10.5-51.8
				c-7.4-17.8-23.6-29.3-41.4-29.3c-19.9,0.1-36,10.3-43.1,27.5c-7.5,18.1-2.8,38.6,12.1,53.5c7.2,7.2,7.9,8.1,7.9,16.3L57.8,142.1z
				"/>
			<path class="st0" d="M111.7,150.3H50c-0.2,0-0.3-0.2-0.3-0.3v-17.4c0-3,0-4.1-0.4-4.8c-0.5-1.1-2.2-2.8-5.1-5.6
				c-17.3-17.3-22.7-41.3-13.9-62.4c8.3-20.1,27.7-32.5,50.6-32.5c21.1,0,40.3,13.5,49,34.3c8.9,21.4,4.3,44.1-12.2,60.6
				c-2.9,2.9-4.6,4.6-5.1,5.6c-0.4,0.7-0.4,1.9-0.4,4.8v17.4C112.1,150.1,111.9,150.3,111.7,150.3z M50.3,149.6h61.1v-17
				c0-3.1,0-4.3,0.5-5.1c0.6-1.2,2.2-2.8,5.2-5.8c16.3-16.3,20.8-38.7,12.1-59.9c-8.5-20.6-27.5-33.9-48.3-33.9
				c-22.6,0-41.8,12.3-50,32.1c-8.7,20.9-3.4,44.5,13.7,61.7c3,3,4.7,4.7,5.2,5.8c0.5,0.9,0.5,2,0.5,5.1V149.6z M103.9,142.5H57.8
				c-0.2,0-0.3-0.2-0.3-0.3v-9.6c0-8-0.7-8.9-7.8-16c-15.1-15.1-19.7-35.7-12.2-53.9C44.6,45.3,60.8,35,80.8,34.9
				c17.9,0,34.3,11.6,41.8,29.5c7.6,18.4,3.7,37.9-10.5,52.1c-7.1,7.1-7.8,8-7.8,16v9.6C104.3,142.3,104.1,142.5,103.9,142.5z
				 M58.1,141.8h45.4v-9.2c0-8.3,0.7-9.2,8-16.5c14-14,17.9-33.2,10.4-51.4C114.6,47,98.5,35.6,80.8,35.6
				c-19.7,0.1-35.7,10.3-42.8,27.3c-7.4,17.9-2.8,38.3,12,53.2c7.3,7.3,8,8.2,8,16.5V141.8z"/>
		</g>
		<g>
			<path class="st0" d="M140.3,135.9c0,0.5-0.1,1-0.5,1.3c-1.1,1.2-2.3,2.5-3.5,3.7c-0.3,0.4-0.8,0.5-1.3,0.5c0,0,0,0,0,0
				c-0.5,0-0.9-0.2-1.3-0.5l-15.2-15.2c-0.7-0.7-0.7-1.9,0-2.6c1-1,1.8-1.8,2.5-2.7c0.3-0.4,0.8-0.6,1.3-0.6c0.5,0,1,0.1,1.3,0.5
				l16,14.4C140.1,135,140.3,135.4,140.3,135.9z"/>
		</g>
		<g>
			<path class="st0" d="M27.4,102.7l-20,7.9c-0.2,0.1-0.4,0.1-0.7,0.1c-0.3,0-0.5,0-0.7-0.1c-0.5-0.2-0.8-0.6-1-1
				c-1.2-3.1-2.2-6.2-3.1-9.4c-0.1-0.5-0.1-1,0.2-1.4c0.2-0.4,0.7-0.7,1.1-0.8L24,92.3c1-0.3,2,0.3,2.2,1.3c0.6,2.2,1.3,4.5,2.2,6.6
				C28.8,101.2,28.4,102.3,27.4,102.7z"/>
			<path class="st0" d="M141.4,29c0,0.5-0.3,0.9-0.7,1.3l-16.5,13.8c-0.4,0.3-0.8,0.4-1.2,0.4c-0.5,0-1.1-0.2-1.4-0.7
				c-1.5-1.8-3.1-3.5-4.8-5.1c-0.7-0.7-0.8-1.9-0.1-2.6l14.7-15.6c0.7-0.7,1.9-0.8,2.6-0.1c2.4,2.3,4.7,4.7,6.9,7.3
				C141.3,28,141.4,28.5,141.4,29z"/>
			<path class="st0" d="M158,68.1l-21.1,4.3c-0.1,0-0.2,0-0.4,0c-0.4,0-0.7-0.1-1-0.3c-0.4-0.3-0.7-0.7-0.8-1.2
				c-0.5-2.3-1.1-4.6-1.8-6.8c-0.3-1,0.2-2,1.2-2.3l20.4-6.7c0.5-0.2,1-0.1,1.4,0.1c0.4,0.2,0.8,0.6,0.9,1.1c1,3.1,1.9,6.4,2.6,9.6
				C159.6,67,159,67.9,158,68.1z"/>
			<path class="st0" d="M26.4,63.9c-0.6,2.2-1.1,4.5-1.4,6.8c-0.1,0.9-0.9,1.6-1.8,1.6c-0.1,0-0.2,0-0.3,0L1.6,69.1
				C0.6,69-0.1,68.1,0,67c0.5-3.3,1.2-6.6,2.1-9.8c0.3-1,1.3-1.6,2.3-1.3l20.7,5.7C26,61.9,26.6,62.9,26.4,63.9z"/>
			<path class="st0" d="M42.1,37.5c0,0.5-0.2,0.9-0.6,1.3c-1.7,1.5-3.2,3.2-4.7,5c-0.3,0.4-0.8,0.6-1.2,0.7c-0.1,0-0.1,0-0.2,0
				c-0.4,0-0.8-0.1-1.2-0.4L17.7,30.3C17.3,30,17.1,29.5,17,29c0-0.5,0.1-1,0.4-1.4c2.1-2.6,4.5-5.1,6.9-7.3
				c0.4-0.3,0.8-0.5,1.3-0.5c0.5,0,0.9,0.2,1.3,0.6l14.6,15.7C41.9,36.5,42.1,37,42.1,37.5z"/>
			<path class="st0" d="M67.8,25.4c-2.3,0.5-4.5,1.1-6.7,1.8c-0.2,0.1-0.4,0.1-0.6,0.1c-0.8,0-1.5-0.5-1.7-1.3L52,5.7
				c-0.3-1,0.2-2,1.2-2.3c3.1-1.1,6.4-1.9,9.6-2.6c0.5-0.1,1,0,1.4,0.3c0.4,0.3,0.7,0.7,0.8,1.2l4.3,21
				C69.5,24.3,68.8,25.2,67.8,25.4z"/>
			<path class="st0" d="M106.8,5.4l-7,20.3c-0.3,0.8-1,1.2-1.7,1.2c-0.2,0-0.4,0-0.6-0.1c-2.1-0.7-4.3-1.3-6.5-1.8
				c-0.5-0.1-0.9-0.4-1.2-0.8c-0.3-0.4-0.4-0.9-0.3-1.4l4.2-21.1c0.2-1,1.2-1.7,2.2-1.4c3.3,0.7,6.6,1.6,9.8,2.7
				C106.6,3.4,107.1,4.5,106.8,5.4z"/>
			<path class="st0" d="M159.5,99.2c-0.7,3.3-1.6,6.5-2.7,9.7c-0.3,0.7-1,1.2-1.7,1.2c-0.2,0-0.4,0-0.6-0.1l-20.3-7
				c-0.5-0.2-0.8-0.5-1.1-0.9c-0.2-0.4-0.2-0.9-0.1-1.4c0.8-2.2,1.4-4.4,1.9-6.6c0.2-1,1.2-1.6,2.2-1.4l21,4.4
				c0.5,0.1,0.9,0.4,1.2,0.8C159.5,98.2,159.6,98.7,159.5,99.2z"/>
		</g>
		<g>
			<path class="st0" d="M44.2,124.4c0,0.5-0.2,1-0.5,1.3l-15.2,15.2c-0.3,0.3-0.8,0.5-1.3,0.5c0,0,0,0,0,0c-0.5,0-1-0.2-1.3-0.5
				c-1.2-1.2-2.3-2.4-3.5-3.6c-0.3-0.4-0.5-0.8-0.5-1.3c0-0.5,0.2-0.9,0.6-1.3l15.9-14.4c0.4-0.3,0.8-0.5,1.3-0.5
				c0.5,0,1,0.3,1.3,0.6c0.8,0.9,1.7,1.8,2.6,2.7C44,123.5,44.2,123.9,44.2,124.4z"/>
		</g>
		<g>
			<path class="st0" d="M49.2,79.2c-2.2,0-3.9-1.7-3.9-3.9c0-19.6,21.6-30.3,32.7-30.3c2.2,0,3.9,1.7,3.9,3.9s-1.7,3.9-3.9,3.9
				c-7.2,0-24.8,7.9-24.8,22.5C53.1,77.5,51.3,79.2,49.2,79.2z"/>
			<path class="st0" d="M49.2,79.6c-2.3,0-4.3-1.9-4.3-4.3c0-19.8,21.8-30.6,33-30.6c2.3,0,4.3,1.9,4.3,4.3s-1.9,4.3-4.3,4.3
				c-7.1,0-24.5,7.8-24.5,22.1C53.4,77.7,51.5,79.6,49.2,79.6z M77.9,45.4c-11,0-32.3,10.6-32.3,29.9c0,2,1.6,3.6,3.6,3.6
				c2,0,3.6-1.6,3.6-3.6c0-14.8,17.9-22.8,25.2-22.8c2,0,3.6-1.6,3.6-3.6S79.9,45.4,77.9,45.4z"/>
		</g>
	</g>
</g>
</svg>
