<?xml version="1.0" encoding="utf-8"?>
<!-- Generator: Adobe Illustrator 24.2.3, SVG Export Plug-In . SVG Version: 6.00 Build 0)  -->
<svg version="1.1" id="Layer_1" xmlns="http://www.w3.org/2000/svg" xmlns:xlink="http://www.w3.org/1999/xlink" x="0px" y="0px"
	 viewBox="0 0 207.3 207.5" style="enable-background:new 0 0 207.3 207.5;" xml:space="preserve">
<style type="text/css">
	.st0{fill:#7A0EE7;}
</style>
<g id="Layer_2_1_">
	<g id="Layer_1-2">
		<g id="circle9434">
			<path class="st0" d="M177.7,88.6c-0.9-4.4-2.2-8.8-3.9-13l18.5-26.5l-18.5-22l-0.9-1.1l-29.2,13.7c-3.5-2.2-7.1-4-10.9-5.6
				l-5.6-31.5L98.5,0.1L97.1,0L86,30.5c-3.6,0.9-7.1,2-10.5,3.4L49.2,15.5L27.2,34l-1.1,0.9l13.6,29c-2.2,3.5-4,7.1-5.6,10.9
				L2.6,80.3L0.1,109L0,110.4l30.3,11c0.9,3.8,2,7.4,3.5,11l-18.2,26.1l18.5,22l0.9,1.1L63.8,168c3.4,2.1,7,4,10.8,5.6l5.6,31.4
				l28.6,2.4l1.4,0.1l10.9-30.1c3.8-0.9,7.6-2.1,11.2-3.6l26.3,18.3l22-18.5l1.1-0.9L168,143.6c1.7-2.7,3.2-5.6,4.5-8.5l32.2-5.7
				l2.4-28.6l0.1-1.4L177.7,88.6z M54.7,145.2c-22.8-27.1-19.3-67.6,7.8-90.4s67.6-19.3,90.4,7.8s19.3,67.6-7.8,90.4c0,0,0,0,0,0
				C118,175.8,77.5,172.3,54.7,145.2L54.7,145.2z"/>
		</g>
	</g>
</g>
</svg>
