<?xml version="1.0" encoding="utf-8"?>
<!-- Generator: Adobe Illustrator 24.2.3, SVG Export Plug-In . SVG Version: 6.00 Build 0)  -->
<svg version="1.1" id="Layer_1" xmlns="http://www.w3.org/2000/svg" xmlns:xlink="http://www.w3.org/1999/xlink" x="0px" y="0px"
	 viewBox="0 0 219.4 219.7" style="enable-background:new 0 0 219.4 219.7;" xml:space="preserve">
<style type="text/css">
	.st0{fill:#7A0EE7;}
</style>
<g id="Layer_2_1_">
	<g id="Layer_1-2">
		<g>
			<path class="st0" d="M216.3,195l-57.5-57.8c-0.4-0.4-1-0.9-1.5-1.3l-15.1-9.8c24.4-33.1,19.4-80.1-12.2-107.2
				C114,5.3,93.7-1.4,72.7,0.2S32.6,11.6,19,27.7C5.3,43.8-1.4,64.3,0.2,85.4s11.3,40.3,27.4,54.1c14.3,12.3,32.4,19,51.2,19l0,0
				c17,0,33.5-5.5,47-15.7l10.5,14.9c0.3,0.4,0.7,0.9,1.1,1.3l57.3,57.8c2,2,4.6,3,7.4,3s5.4-1.1,7.5-3.2l6.7-6.9
				C220.3,205.4,220.2,199,216.3,195z M78.9,139.6c-33.2,0-60.1-27.1-60.1-60.4s27-60.4,60.1-60.4c33.2,0,60.1,27.1,60.1,60.4
				S112,139.6,78.9,139.6z"/>
		</g>
		<g>
			<path class="st0" d="M40.9,113c-1.9,0-3.3-1.4-3.3-3.3c0-0.2,0-0.3,0-0.6c1.1-7.7,6.1-24,27.4-24c1.7,0,1-5.3,0-6.7
				c-2.2-3.1-6.9-7.5-6.9-15c0-4.6-3.7-30.2,20.8-30.2C102,33.2,98,58.9,98,63.8c0,7.6-3.6,11.6-5.7,14.8c-1,1.4-1.7,6.7,0,6.7
				c21.5,0,26.6,16.3,27.8,23.9c0.3,1.8-1,3.6-2.8,3.8c-0.2,0-0.3,0-0.6,0L40.9,113z"/>
		</g>
	</g>
</g>
</svg>
