<svg width="186" height="32" viewBox="0 0 186 32" fill="none" xmlns="http://www.w3.org/2000/svg">
<path d="M23.6133 1.89844C23.5872 2.04167 23.5286 2.15885 23.4375 2.25C23.3594 2.34115 23.2747 2.43229 23.1836 2.52344C23.0924 2.61458 23.0013 2.70573 22.9102 2.79688C22.832 2.88802 22.7865 3.00521 22.7734 3.14844C22.7344 3.44792 22.5781 3.69531 22.3047 3.89062C22.0312 4.07292 21.7122 4.16406 21.3477 4.16406C21.0352 4.16406 20.5143 4.14453 19.7852 4.10547C19.056 4.06641 18.2227 4.04688 17.2852 4.04688C16.2435 4.04688 15.1758 4.08594 14.082 4.16406C12.9883 4.22917 11.9206 4.34635 10.8789 4.51562C9.83724 4.6849 8.85417 4.90625 7.92969 5.17969C7.00521 5.45312 6.19792 5.79167 5.50781 6.19531C4.81771 6.59896 4.27083 7.07422 3.86719 7.62109C3.46354 8.15495 3.26172 8.77344 3.26172 9.47656C3.26172 10.1146 3.3724 10.7396 3.59375 11.3516C3.82812 11.9505 4.09505 12.5039 4.39453 13.0117C4.70703 13.5065 5.01953 13.9427 5.33203 14.3203C5.65755 14.6979 5.91146 14.9714 6.09375 15.1406C6.22396 15.2578 6.28906 15.3815 6.28906 15.5117C6.28906 15.7721 5.95703 15.9023 5.29297 15.9023C5.1237 15.9023 4.88281 15.8698 4.57031 15.8047C4.27083 15.7396 3.94531 15.6289 3.59375 15.4727C3.24219 15.3164 2.8776 15.1016 2.5 14.8281C2.13542 14.5547 1.80339 14.2096 1.50391 13.793C1.20443 13.3763 0.957031 12.8815 0.761719 12.3086C0.579427 11.7357 0.488281 11.0586 0.488281 10.2773C0.488281 9.15755 0.768229 8.07682 1.32812 7.03516C1.90104 5.98047 2.66927 5.03646 3.63281 4.20312C4.60938 3.35677 5.7487 2.65365 7.05078 2.09375C8.35286 1.52083 9.73958 1.14323 11.2109 0.960938C11.901 0.84375 12.6042 0.746094 13.3203 0.667969C14.0495 0.589844 14.7656 0.52474 15.4688 0.472656C16.1719 0.420573 16.849 0.38151 17.5 0.355469C18.1641 0.329427 18.776 0.316406 19.3359 0.316406C20.3776 0.316406 21.1979 0.355469 21.7969 0.433594C22.3958 0.498698 22.8385 0.583333 23.125 0.6875C23.4245 0.791667 23.6068 0.908854 23.6719 1.03906C23.75 1.15625 23.7891 1.26693 23.7891 1.37109C23.7891 1.44922 23.763 1.52734 23.7109 1.60547C23.6719 1.68359 23.6393 1.78125 23.6133 1.89844ZM15 5.29688C15 5.38802 14.987 5.76562 14.9609 6.42969C14.9349 7.09375 14.8958 7.9401 14.8438 8.96875C14.8047 9.9974 14.7526 11.1628 14.6875 12.4648C14.6354 13.7669 14.5768 15.1081 14.5117 16.4883C14.4596 17.8555 14.401 19.2096 14.3359 20.5508C14.2839 21.8919 14.2318 23.1224 14.1797 24.2422C14.1406 25.362 14.1081 26.319 14.082 27.1133C14.056 27.8945 14.043 28.4154 14.043 28.6758C14.043 28.819 14.0234 28.9622 13.9844 29.1055C13.9583 29.2617 13.8997 29.4049 13.8086 29.5352C13.7174 29.6784 13.5872 29.8021 13.418 29.9062C13.2617 30.0104 13.0469 30.0885 12.7734 30.1406C12.5391 30.1797 12.3242 30.2448 12.1289 30.3359C11.9466 30.4401 11.7773 30.5443 11.6211 30.6484C11.4779 30.7526 11.3477 30.8438 11.2305 30.9219C11.1133 31 11.0026 31.0391 10.8984 31.0391C10.8333 31.0391 10.7878 31.0065 10.7617 30.9414C10.7357 30.8893 10.7161 30.8177 10.7031 30.7266C10.6901 30.6484 10.6836 30.5638 10.6836 30.4727C10.6836 30.3945 10.6836 30.3229 10.6836 30.2578C10.6966 29.4505 10.7357 28.0964 10.8008 26.1953C10.8268 25.388 10.8594 24.4245 10.8984 23.3047C10.9505 22.1719 11.0091 20.8503 11.0742 19.3398C11.1523 17.8164 11.237 16.0911 11.3281 14.1641C11.4193 12.224 11.5234 10.043 11.6406 7.62109C11.6667 7.03516 11.7708 6.54688 11.9531 6.15625C12.1354 5.76562 12.4609 5.51823 12.9297 5.41406C13.1641 5.36198 13.3724 5.27734 13.5547 5.16016C13.75 5.02995 13.9258 4.89974 14.082 4.76953C14.2383 4.63932 14.375 4.52214 14.4922 4.41797C14.6094 4.3138 14.707 4.26172 14.7852 4.26172C14.9023 4.26172 14.9674 4.36589 14.9805 4.57422C14.9935 4.76953 15 5.01042 15 5.29688ZM22.4414 27.1133C22.7539 27.1133 23.0273 27.0091 23.2617 26.8008C23.4961 26.5924 23.6914 26.319 23.8477 25.9805C24.0169 25.6419 24.1536 25.2513 24.2578 24.8086C24.362 24.3529 24.4401 23.8841 24.4922 23.4023C24.1146 23.1419 23.7435 22.8034 23.3789 22.3867C23.0273 21.9701 22.7083 21.4622 22.4219 20.8633C22.2526 20.5117 22.1289 20.1536 22.0508 19.7891C21.9727 19.4115 21.9336 19.0534 21.9336 18.7148C21.9336 18.2852 21.9922 17.8815 22.1094 17.5039C22.2266 17.1263 22.3958 16.8008 22.6172 16.5273C22.8516 16.2539 23.138 16.0391 23.4766 15.8828C23.8151 15.7135 24.2057 15.6289 24.6484 15.6289C25.2083 15.6289 25.6641 15.7656 26.0156 16.0391C26.3802 16.2995 26.6667 16.638 26.875 17.0547C27.0833 17.4583 27.2266 17.901 27.3047 18.3828C27.3958 18.8646 27.4414 19.3138 27.4414 19.7305C27.4414 20.2773 27.4023 20.8372 27.3242 21.4102C27.2591 21.9831 27.1484 22.5625 26.9922 23.1484C27.474 23.1094 27.9036 22.9792 28.2812 22.7578C28.6589 22.5234 28.9779 22.1328 29.2383 21.5859C29.3945 21.2604 29.5573 21.0977 29.7266 21.0977C29.8177 21.0977 29.8958 21.1237 29.9609 21.1758C30.0391 21.2279 30.0781 21.3125 30.0781 21.4297C30.0781 21.5208 30.0586 21.612 30.0195 21.7031C29.7591 22.4453 29.3229 23.0312 28.7109 23.4609C28.112 23.8906 27.4414 24.1055 26.6992 24.1055C26.4779 24.7435 26.2044 25.349 25.8789 25.9219C25.5664 26.4818 25.1953 26.9766 24.7656 27.4062C24.3359 27.8359 23.8477 28.1745 23.3008 28.4219C22.7539 28.6693 22.1484 28.793 21.4844 28.793C21.1328 28.793 20.7357 28.7409 20.293 28.6367C19.8503 28.5326 19.4336 28.3177 19.043 27.9922C18.6523 27.6536 18.3268 27.1849 18.0664 26.5859C17.793 25.974 17.6562 25.1667 17.6562 24.1641C17.6562 23.3438 17.8125 22.4779 18.125 21.5664C18.4245 20.6549 18.9323 19.75 19.6484 18.8516C19.9219 18.513 20.1693 18.2721 20.3906 18.1289C20.625 17.9857 20.8138 17.9141 20.957 17.9141C21.2435 17.9141 21.3867 18.0898 21.3867 18.4414C21.3867 18.5977 21.3346 18.793 21.2305 19.0273C21.1263 19.2617 21.0156 19.5612 20.8984 19.9258C20.7812 20.2904 20.6706 20.7266 20.5664 21.2344C20.4622 21.7292 20.4102 22.3151 20.4102 22.9922C20.4102 24.2943 20.5924 25.3099 20.957 26.0391C21.3346 26.7552 21.8294 27.1133 22.4414 27.1133ZM24.6094 21.3711C24.6094 20.043 24.4857 19.0924 24.2383 18.5195C23.9909 17.9336 23.7174 17.6992 23.418 17.8164C23.2878 17.8685 23.2096 17.9857 23.1836 18.168C23.1706 18.3503 23.1641 18.526 23.1641 18.6953C23.1641 18.9818 23.2031 19.2812 23.2812 19.5938C23.3594 19.9062 23.457 20.2188 23.5742 20.5312C23.7044 20.8438 23.8542 21.1432 24.0234 21.4297C24.2057 21.7031 24.3945 21.957 24.5898 22.1914C24.6029 22.0482 24.6094 21.9115 24.6094 21.7812C24.6094 21.651 24.6094 21.5143 24.6094 21.3711ZM47.9688 21.0977C48.151 21.0977 48.2422 21.2018 48.2422 21.4102C48.2422 21.4883 48.2227 21.5859 48.1836 21.7031C47.8841 22.5755 47.5977 23.3763 47.3242 24.1055C47.0638 24.8346 46.8034 25.4857 46.543 26.0586C46.3867 26.4102 46.2174 26.7487 46.0352 27.0742C45.8529 27.3997 45.6445 27.6927 45.4102 27.9531C45.1758 28.2005 44.9089 28.4023 44.6094 28.5586C44.3099 28.7148 43.9648 28.793 43.5742 28.793C43.3138 28.793 43.0599 28.7539 42.8125 28.6758C42.5651 28.6107 42.3372 28.487 42.1289 28.3047C41.9206 28.1094 41.7448 27.8555 41.6016 27.543C41.4583 27.2305 41.3607 26.8398 41.3086 26.3711C41.2826 26.0846 41.263 25.7852 41.25 25.4727C41.237 25.1602 41.2305 24.8477 41.2305 24.5352C41.2305 23.832 41.25 23.168 41.2891 22.543C41.3281 21.9049 41.3477 21.4232 41.3477 21.0977C41.3477 20.8372 41.3021 20.6484 41.2109 20.5312C41.1328 20.4141 41.0417 20.3555 40.9375 20.3555C40.7943 20.3555 40.6836 20.4141 40.6055 20.5312C40.5404 20.6354 40.4818 20.7591 40.4297 20.9023C40.3646 21.0586 40.2669 21.332 40.1367 21.7227C40.0065 22.1003 39.8568 22.5299 39.6875 23.0117C39.5312 23.4935 39.362 24.0013 39.1797 24.5352C38.9974 25.056 38.8281 25.5378 38.6719 25.9805C38.4766 26.5534 38.2878 27.0156 38.1055 27.3672C37.9362 27.7057 37.7669 27.9727 37.5977 28.168C37.4414 28.3633 37.2852 28.4935 37.1289 28.5586C36.9727 28.6237 36.8164 28.6562 36.6602 28.6562C36.5299 28.6562 36.3932 28.6302 36.25 28.5781C36.1068 28.526 35.9701 28.4414 35.8398 28.3242C35.7227 28.207 35.6185 28.0508 35.5273 27.8555C35.4492 27.6471 35.4036 27.3932 35.3906 27.0938C35.3776 26.8854 35.3711 26.6771 35.3711 26.4688C35.3711 26.2474 35.3711 26.026 35.3711 25.8047C35.3711 25.3229 35.3776 24.8411 35.3906 24.3594C35.4036 23.8776 35.4167 23.4284 35.4297 23.0117C35.4557 22.5951 35.4753 22.2174 35.4883 21.8789C35.5013 21.5404 35.5078 21.2799 35.5078 21.0977C35.5078 20.8372 35.4622 20.6484 35.3711 20.5312C35.293 20.4141 35.2018 20.3555 35.0977 20.3555C34.9805 20.3555 34.8763 20.4076 34.7852 20.5117C34.707 20.6159 34.6419 20.7396 34.5898 20.8828C34.5247 21.0391 34.4271 21.319 34.2969 21.7227C34.1667 22.1133 34.0169 22.5625 33.8477 23.0703C33.6914 23.5651 33.5221 24.0859 33.3398 24.6328C33.1576 25.1667 32.9883 25.6549 32.832 26.0977C32.6237 26.6836 32.4284 27.1523 32.2461 27.5039C32.0768 27.8555 31.9076 28.1289 31.7383 28.3242C31.569 28.5065 31.4062 28.6302 31.25 28.6953C31.1068 28.7604 30.957 28.793 30.8008 28.793C30.6706 28.793 30.5339 28.7669 30.3906 28.7148C30.2474 28.6628 30.1107 28.5781 29.9805 28.4609C29.8633 28.3307 29.7591 28.168 29.668 27.9727C29.5898 27.7643 29.5508 27.5104 29.5508 27.2109C29.5378 26.8203 29.5312 26.4622 29.5312 26.1367C29.5312 25.8112 29.5312 25.4857 29.5312 25.1602C29.5312 24.7044 29.5312 24.2357 29.5312 23.7539C29.5443 23.2591 29.5638 22.6797 29.5898 22.0156C29.6029 21.4297 29.6419 20.8763 29.707 20.3555C29.7852 19.8346 29.8698 19.3789 29.9609 18.9883C30.0521 18.5846 30.1367 18.2526 30.2148 17.9922C30.306 17.7318 30.3776 17.569 30.4297 17.5039C30.5208 17.3997 30.6185 17.2956 30.7227 17.1914C30.8398 17.0742 30.9505 17.0156 31.0547 17.0156C31.1589 17.0156 31.237 17.0482 31.2891 17.1133C31.3411 17.1654 31.3997 17.1914 31.4648 17.1914C31.543 17.1914 31.6406 17.1589 31.7578 17.0938C31.875 17.0156 32.0182 16.9245 32.1875 16.8203C32.2786 16.7682 32.3698 16.7161 32.4609 16.6641C32.5521 16.599 32.6497 16.5664 32.7539 16.5664C32.8971 16.5664 32.9688 16.7357 32.9688 17.0742C32.9688 17.1784 32.9492 17.3932 32.9102 17.7188C32.8841 18.0312 32.8581 18.3438 32.832 18.6562C32.793 19.2161 32.7539 19.776 32.7148 20.3359C32.6758 20.8828 32.6367 21.3906 32.5977 21.8594C32.5716 22.3281 32.5521 22.7318 32.5391 23.0703C32.526 23.4089 32.5195 23.6432 32.5195 23.7734C32.5195 23.9818 32.5326 24.0859 32.5586 24.0859C32.5716 24.0859 32.6237 23.9622 32.7148 23.7148C32.819 23.4544 32.9427 23.1224 33.0859 22.7188C33.2422 22.3021 33.4115 21.8464 33.5938 21.3516C33.7891 20.8438 33.9909 20.3424 34.1992 19.8477C34.4076 19.3398 34.6159 18.8646 34.8242 18.4219C35.0456 17.9661 35.2604 17.5951 35.4688 17.3086C35.7292 16.944 36.0026 16.6706 36.2891 16.4883C36.5755 16.293 36.8555 16.1953 37.1289 16.1953C37.6758 16.1953 38.0273 16.5404 38.1836 17.2305C38.3398 17.9206 38.418 18.9427 38.418 20.2969C38.418 20.8828 38.4049 21.4883 38.3789 22.1133C38.3529 22.7383 38.3398 23.3568 38.3398 23.9688C38.3398 24.0469 38.3529 24.0859 38.3789 24.0859C38.3919 24.0859 38.444 23.9622 38.5352 23.7148C38.6263 23.4544 38.7435 23.1224 38.8867 22.7188C39.043 22.3021 39.2188 21.8398 39.4141 21.332C39.6094 20.8242 39.8112 20.3229 40.0195 19.8281C40.2409 19.3203 40.4557 18.8451 40.6641 18.4023C40.8854 17.9596 41.1003 17.5951 41.3086 17.3086C41.569 16.957 41.8424 16.6836 42.1289 16.4883C42.4154 16.293 42.6953 16.1953 42.9688 16.1953C43.2031 16.1953 43.4049 16.2734 43.5742 16.4297C43.7435 16.5729 43.8737 16.7812 43.9648 17.0547C44.069 17.3151 44.1406 17.6276 44.1797 17.9922C44.2318 18.3438 44.2578 18.7344 44.2578 19.1641C44.2578 19.3984 44.2448 19.6849 44.2188 20.0234C44.2057 20.362 44.1862 20.7201 44.1602 21.0977C44.1471 21.4753 44.1341 21.8659 44.1211 22.2695C44.1081 22.6602 44.1016 23.0182 44.1016 23.3438C44.1016 23.8516 44.1211 24.2682 44.1602 24.5938C44.2122 24.9193 44.2773 25.1732 44.3555 25.3555C44.4336 25.5378 44.5247 25.6615 44.6289 25.7266C44.7331 25.7917 44.8503 25.8242 44.9805 25.8242C45.2148 25.8242 45.4232 25.7201 45.6055 25.5117C45.8008 25.2904 45.9896 24.9909 46.1719 24.6133C46.3672 24.2357 46.5625 23.793 46.7578 23.2852C46.9531 22.7643 47.1745 22.1979 47.4219 21.5859C47.5391 21.2604 47.7214 21.0977 47.9688 21.0977ZM66.1328 21.0977C66.3151 21.0977 66.4062 21.2018 66.4062 21.4102C66.4062 21.4883 66.3867 21.5859 66.3477 21.7031C66.0482 22.5755 65.7617 23.3763 65.4883 24.1055C65.2279 24.8346 64.9674 25.4857 64.707 26.0586C64.5508 26.4102 64.3815 26.7487 64.1992 27.0742C64.0169 27.3997 63.8086 27.6927 63.5742 27.9531C63.3398 28.2005 63.0729 28.4023 62.7734 28.5586C62.474 28.7148 62.1289 28.793 61.7383 28.793C61.4779 28.793 61.224 28.7539 60.9766 28.6758C60.7292 28.6107 60.5013 28.487 60.293 28.3047C60.0846 28.1094 59.9089 27.8555 59.7656 27.543C59.6224 27.2305 59.5247 26.8398 59.4727 26.3711C59.4466 26.0846 59.4271 25.7852 59.4141 25.4727C59.401 25.1602 59.3945 24.8477 59.3945 24.5352C59.3945 23.832 59.4141 23.168 59.4531 22.543C59.4922 21.9049 59.5117 21.4232 59.5117 21.0977C59.5117 20.8372 59.4661 20.6484 59.375 20.5312C59.2969 20.4141 59.2057 20.3555 59.1016 20.3555C58.9583 20.3555 58.8477 20.4141 58.7695 20.5312C58.7044 20.6354 58.6458 20.7591 58.5938 20.9023C58.5286 21.0586 58.431 21.332 58.3008 21.7227C58.1706 22.1003 58.0208 22.5299 57.8516 23.0117C57.6953 23.4935 57.526 24.0013 57.3438 24.5352C57.1615 25.056 56.9922 25.5378 56.8359 25.9805C56.6406 26.5534 56.4518 27.0156 56.2695 27.3672C56.1003 27.7057 55.931 27.9727 55.7617 28.168C55.6055 28.3633 55.4492 28.4935 55.293 28.5586C55.1367 28.6237 54.9805 28.6562 54.8242 28.6562C54.694 28.6562 54.5573 28.6302 54.4141 28.5781C54.2708 28.526 54.1341 28.4414 54.0039 28.3242C53.8867 28.207 53.7826 28.0508 53.6914 27.8555C53.6133 27.6471 53.5677 27.3932 53.5547 27.0938C53.5417 26.8854 53.5352 26.6771 53.5352 26.4688C53.5352 26.2474 53.5352 26.026 53.5352 25.8047C53.5352 25.3229 53.5417 24.8411 53.5547 24.3594C53.5677 23.8776 53.5807 23.4284 53.5938 23.0117C53.6198 22.5951 53.6393 22.2174 53.6523 21.8789C53.6654 21.5404 53.6719 21.2799 53.6719 21.0977C53.6719 20.8372 53.6263 20.6484 53.5352 20.5312C53.457 20.4141 53.3659 20.3555 53.2617 20.3555C53.1445 20.3555 53.0404 20.4076 52.9492 20.5117C52.8711 20.6159 52.806 20.7396 52.7539 20.8828C52.6888 21.0391 52.5911 21.319 52.4609 21.7227C52.3307 22.1133 52.181 22.5625 52.0117 23.0703C51.8555 23.5651 51.6862 24.0859 51.5039 24.6328C51.3216 25.1667 51.1523 25.6549 50.9961 26.0977C50.7878 26.6836 50.5924 27.1523 50.4102 27.5039C50.2409 27.8555 50.0716 28.1289 49.9023 28.3242C49.7331 28.5065 49.5703 28.6302 49.4141 28.6953C49.2708 28.7604 49.1211 28.793 48.9648 28.793C48.8346 28.793 48.6979 28.7669 48.5547 28.7148C48.4115 28.6628 48.2747 28.5781 48.1445 28.4609C48.0273 28.3307 47.9232 28.168 47.832 27.9727C47.7539 27.7643 47.7148 27.5104 47.7148 27.2109C47.7018 26.8203 47.6953 26.4622 47.6953 26.1367C47.6953 25.8112 47.6953 25.4857 47.6953 25.1602C47.6953 24.7044 47.6953 24.2357 47.6953 23.7539C47.7083 23.2591 47.7279 22.6797 47.7539 22.0156C47.7669 21.4297 47.806 20.8763 47.8711 20.3555C47.9492 19.8346 48.0339 19.3789 48.125 18.9883C48.2161 18.5846 48.3008 18.2526 48.3789 17.9922C48.4701 17.7318 48.5417 17.569 48.5938 17.5039C48.6849 17.3997 48.7826 17.2956 48.8867 17.1914C49.0039 17.0742 49.1146 17.0156 49.2188 17.0156C49.3229 17.0156 49.401 17.0482 49.4531 17.1133C49.5052 17.1654 49.5638 17.1914 49.6289 17.1914C49.707 17.1914 49.8047 17.1589 49.9219 17.0938C50.0391 17.0156 50.1823 16.9245 50.3516 16.8203C50.4427 16.7682 50.5339 16.7161 50.625 16.6641C50.7161 16.599 50.8138 16.5664 50.918 16.5664C51.0612 16.5664 51.1328 16.7357 51.1328 17.0742C51.1328 17.1784 51.1133 17.3932 51.0742 17.7188C51.0482 18.0312 51.0221 18.3438 50.9961 18.6562C50.957 19.2161 50.918 19.776 50.8789 20.3359C50.8398 20.8828 50.8008 21.3906 50.7617 21.8594C50.7357 22.3281 50.7161 22.7318 50.7031 23.0703C50.6901 23.4089 50.6836 23.6432 50.6836 23.7734C50.6836 23.9818 50.6966 24.0859 50.7227 24.0859C50.7357 24.0859 50.7878 23.9622 50.8789 23.7148C50.9831 23.4544 51.1068 23.1224 51.25 22.7188C51.4062 22.3021 51.5755 21.8464 51.7578 21.3516C51.9531 20.8438 52.1549 20.3424 52.3633 19.8477C52.5716 19.3398 52.7799 18.8646 52.9883 18.4219C53.2096 17.9661 53.4245 17.5951 53.6328 17.3086C53.8932 16.944 54.1667 16.6706 54.4531 16.4883C54.7396 16.293 55.0195 16.1953 55.293 16.1953C55.8398 16.1953 56.1914 16.5404 56.3477 17.2305C56.5039 17.9206 56.582 18.9427 56.582 20.2969C56.582 20.8828 56.569 21.4883 56.543 22.1133C56.5169 22.7383 56.5039 23.3568 56.5039 23.9688C56.5039 24.0469 56.5169 24.0859 56.543 24.0859C56.556 24.0859 56.6081 23.9622 56.6992 23.7148C56.7904 23.4544 56.9076 23.1224 57.0508 22.7188C57.207 22.3021 57.3828 21.8398 57.5781 21.332C57.7734 20.8242 57.9753 20.3229 58.1836 19.8281C58.4049 19.3203 58.6198 18.8451 58.8281 18.4023C59.0495 17.9596 59.2643 17.5951 59.4727 17.3086C59.7331 16.957 60.0065 16.6836 60.293 16.4883C60.5794 16.293 60.8594 16.1953 61.1328 16.1953C61.3672 16.1953 61.569 16.2734 61.7383 16.4297C61.9076 16.5729 62.0378 16.7812 62.1289 17.0547C62.2331 17.3151 62.3047 17.6276 62.3438 17.9922C62.3958 18.3438 62.4219 18.7344 62.4219 19.1641C62.4219 19.3984 62.4089 19.6849 62.3828 20.0234C62.3698 20.362 62.3503 20.7201 62.3242 21.0977C62.3112 21.4753 62.2982 21.8659 62.2852 22.2695C62.2721 22.6602 62.2656 23.0182 62.2656 23.3438C62.2656 23.8516 62.2852 24.2682 62.3242 24.5938C62.3763 24.9193 62.4414 25.1732 62.5195 25.3555C62.5977 25.5378 62.6888 25.6615 62.793 25.7266C62.8971 25.7917 63.0143 25.8242 63.1445 25.8242C63.3789 25.8242 63.5872 25.7201 63.7695 25.5117C63.9648 25.2904 64.1536 24.9909 64.3359 24.6133C64.5312 24.2357 64.7266 23.793 64.9219 23.2852C65.1172 22.7643 65.3385 22.1979 65.5859 21.5859C65.7031 21.2604 65.8854 21.0977 66.1328 21.0977ZM70.7812 8.10938C70.8203 8.1875 70.8398 8.27214 70.8398 8.36328C70.8398 8.61068 70.6836 8.87109 70.3711 9.14453C70.1107 9.37891 69.8698 9.60677 69.6484 9.82812C69.4271 10.0495 69.2253 10.2513 69.043 10.4336C68.8607 10.6029 68.6979 10.7396 68.5547 10.8438C68.4115 10.9479 68.2943 11 68.2031 11C68.138 11 68.0729 10.987 68.0078 10.9609C67.9557 10.9349 67.9036 10.8763 67.8516 10.7852C67.6953 10.4857 67.5391 10.1732 67.3828 9.84766C67.2266 9.52214 67.0833 9.21615 66.9531 8.92969C66.8359 8.64323 66.7383 8.39583 66.6602 8.1875C66.582 7.96615 66.543 7.81641 66.543 7.73828C66.543 7.59505 66.6081 7.4388 66.7383 7.26953C66.7904 7.19141 66.9076 7.04167 67.0898 6.82031C67.2852 6.59896 67.487 6.36458 67.6953 6.11719C67.9167 5.86979 68.1185 5.64193 68.3008 5.43359C68.4961 5.22526 68.6263 5.08854 68.6914 5.02344C68.8477 4.84115 68.9779 4.75 69.082 4.75C69.1992 4.75 69.2904 4.83464 69.3555 5.00391C69.3945 5.09505 69.4792 5.29036 69.6094 5.58984C69.7526 5.88932 69.9023 6.21484 70.0586 6.56641C70.2148 6.90495 70.3646 7.22396 70.5078 7.52344C70.651 7.82292 70.7422 8.01823 70.7812 8.10938ZM73.3789 21.0977C73.457 21.0977 73.5221 21.1302 73.5742 21.1953C73.6393 21.2474 73.6719 21.3255 73.6719 21.4297C73.6719 21.5208 73.6523 21.612 73.6133 21.7031C73.3138 22.5625 73.0339 23.3438 72.7734 24.0469C72.526 24.75 72.2721 25.375 72.0117 25.9219C71.6341 26.7422 71.2695 27.3737 70.918 27.8164C70.5794 28.2461 70.1953 28.5326 69.7656 28.6758C69.6615 28.7018 69.5443 28.7279 69.4141 28.7539C69.2839 28.7799 69.1471 28.793 69.0039 28.793C68.6784 28.793 68.3268 28.7279 67.9492 28.5977C67.5846 28.4674 67.2396 28.2201 66.9141 27.8555C66.6016 27.4909 66.3411 26.9831 66.1328 26.332C65.9245 25.668 65.8203 24.8086 65.8203 23.7539C65.8203 22.8164 65.8529 21.918 65.918 21.0586C65.9831 20.1862 66.0807 19.3073 66.2109 18.4219C66.4062 18.0182 66.6406 17.6536 66.9141 17.3281C67.2005 16.9896 67.487 16.7031 67.7734 16.4688C68.0599 16.2214 68.3203 16.0326 68.5547 15.9023C68.8021 15.7721 68.9844 15.707 69.1016 15.707C69.1536 15.707 69.1797 15.7656 69.1797 15.8828C69.1797 15.987 69.1602 16.1693 69.1211 16.4297C69.0951 16.6771 69.0625 17.0286 69.0234 17.4844C68.9844 17.9401 68.9388 18.526 68.8867 19.2422C68.8477 19.9453 68.8151 20.8047 68.7891 21.8203C68.7891 22.4062 68.8216 22.9466 68.8867 23.4414C68.9648 23.9362 69.069 24.3659 69.1992 24.7305C69.3424 25.0951 69.5117 25.3815 69.707 25.5898C69.9023 25.7852 70.1172 25.8828 70.3516 25.8828C70.5729 25.8828 70.7812 25.7786 70.9766 25.5703C71.1719 25.349 71.3672 25.0495 71.5625 24.6719C71.7578 24.2812 71.9596 23.8255 72.168 23.3047C72.3763 22.7708 72.5977 22.1979 72.832 21.5859C72.9622 21.2604 73.1445 21.0977 73.3789 21.0977ZM89.4727 6.89844C89.6029 6.61198 89.7852 6.38411 90.0195 6.21484C90.2539 6.03255 90.5208 5.94141 90.8203 5.94141C90.9245 5.94141 91.0612 5.97396 91.2305 6.03906C91.3997 6.10417 91.4844 6.20833 91.4844 6.35156C91.4844 6.45573 91.4714 6.55339 91.4453 6.64453C91.4323 6.72266 91.4128 6.83333 91.3867 6.97656C91.1523 8.08333 90.944 9.20964 90.7617 10.3555C90.5924 11.5013 90.4427 12.6276 90.3125 13.7344C90.1823 14.8411 90.0716 15.9089 89.9805 16.9375C89.9023 17.9531 89.8372 18.8971 89.7852 19.7695C89.7461 20.6419 89.7135 21.4167 89.6875 22.0938C89.6745 22.7578 89.668 23.2917 89.668 23.6953C89.668 24.3464 89.6615 25.0104 89.6484 25.6875C89.6484 26.3646 89.6484 27.0026 89.6484 27.6016C89.6484 28.1875 89.6419 28.7083 89.6289 29.1641C89.6289 29.6198 89.6289 29.9453 89.6289 30.1406C89.6289 30.1927 89.6289 30.2643 89.6289 30.3555C89.6289 30.4466 89.6159 30.5312 89.5898 30.6094C89.5638 30.7005 89.5182 30.7786 89.4531 30.8438C89.401 30.9089 89.3229 30.9414 89.2188 30.9414C89.0495 30.9414 88.8932 30.9089 88.75 30.8438C88.6068 30.7786 88.4701 30.7005 88.3398 30.6094C88.2096 30.5312 88.0794 30.4596 87.9492 30.3945C87.832 30.3294 87.7148 30.2969 87.5977 30.2969C87.4544 30.2969 87.3372 30.3424 87.2461 30.4336C87.1549 30.5247 87.0443 30.5703 86.9141 30.5703C86.7578 30.5703 86.6341 30.5312 86.543 30.4531C86.4518 30.375 86.3867 30.2773 86.3477 30.1602C86.3086 30.043 86.2826 29.9193 86.2695 29.7891C86.2695 29.6589 86.2695 29.5417 86.2695 29.4375C86.2695 29.1901 86.2695 28.7995 86.2695 28.2656C86.2826 27.7318 86.2956 27.1328 86.3086 26.4688C86.3346 25.7917 86.3607 25.0885 86.3867 24.3594C86.4128 23.6172 86.4388 22.9206 86.4648 22.2695C86.5039 21.5143 86.5495 20.707 86.6016 19.8477C86.6667 18.9753 86.7383 18.1094 86.8164 17.25C86.8945 16.3906 86.9727 15.5573 87.0508 14.75C87.1419 13.9297 87.2201 13.1875 87.2852 12.5234C87.3633 11.8464 87.4284 11.2734 87.4805 10.8047C87.5456 10.3359 87.5911 10.0104 87.6172 9.82812C87.7083 9.25521 87.7995 8.76693 87.8906 8.36328C87.9948 7.95964 88.1055 7.6862 88.2227 7.54297C88.3138 7.42578 88.4245 7.32161 88.5547 7.23047C88.6589 7.15234 88.7891 7.08073 88.9453 7.01562C89.1016 6.9375 89.2773 6.89844 89.4727 6.89844ZM92.168 3.79297C91.2044 3.79297 90.2214 3.89714 89.2188 4.10547C88.2161 4.30078 87.3047 4.6263 86.4844 5.08203C85.6641 5.53776 84.987 6.14323 84.4531 6.89844C83.9323 7.64062 83.6719 8.5651 83.6719 9.67188C83.6719 10.2448 83.7435 10.7917 83.8867 11.3125C84.0299 11.8333 84.1992 12.3086 84.3945 12.7383C84.5898 13.168 84.7852 13.5391 84.9805 13.8516C85.1758 14.151 85.332 14.3724 85.4492 14.5156C85.5143 14.5938 85.5729 14.6849 85.625 14.7891C85.6771 14.8932 85.7031 14.9844 85.7031 15.0625C85.7031 15.1667 85.6576 15.2578 85.5664 15.3359C85.4883 15.4141 85.3385 15.4531 85.1172 15.4531C84.8047 15.4531 84.388 15.349 83.8672 15.1406C83.3594 14.9193 82.8581 14.5872 82.3633 14.1445C81.8815 13.7018 81.4648 13.1354 81.1133 12.4453C80.7617 11.7552 80.5859 10.9414 80.5859 10.0039C80.5859 9.33984 80.7161 8.64974 80.9766 7.93359C81.237 7.21745 81.6146 6.51432 82.1094 5.82422C82.6172 5.12109 83.2357 4.45703 83.9648 3.83203C84.707 3.20703 85.5469 2.66016 86.4844 2.19141C87.4349 1.72266 88.4766 1.35156 89.6094 1.07812C90.7552 0.791667 91.9922 0.648438 93.3203 0.648438C95.0911 0.648438 96.6406 0.934896 97.9688 1.50781C99.2969 2.06771 100.404 2.81641 101.289 3.75391C102.174 4.69141 102.839 5.77214 103.281 6.99609C103.737 8.22005 103.965 9.49609 103.965 10.8242C103.965 12.4518 103.685 13.9232 103.125 15.2383C102.578 16.5534 101.784 17.6732 100.742 18.5977C99.7005 19.5221 98.431 20.2383 96.9336 20.7461C95.4362 21.2409 93.7435 21.4883 91.8555 21.4883C91.7122 21.4883 91.556 21.4948 91.3867 21.5078C91.2305 21.5078 91.0807 21.4948 90.9375 21.4688C90.8073 21.4297 90.6966 21.3776 90.6055 21.3125C90.5273 21.2344 90.4883 21.1172 90.4883 20.9609C90.4883 20.8177 90.5273 20.681 90.6055 20.5508C90.6836 20.4206 90.7943 20.349 90.9375 20.3359C92.6172 20.2057 94.0299 19.8997 95.1758 19.418C96.3216 18.9362 97.2396 18.3242 97.9297 17.582C98.6328 16.8268 99.1341 15.9609 99.4336 14.9844C99.7461 13.9948 99.9023 12.9336 99.9023 11.8008C99.9023 10.3685 99.7005 9.14453 99.2969 8.12891C98.8932 7.11328 98.3398 6.28646 97.6367 5.64844C96.9336 4.9974 96.1133 4.52865 95.1758 4.24219C94.2383 3.94271 93.2357 3.79297 92.168 3.79297ZM109.414 8.10938C109.453 8.1875 109.473 8.27214 109.473 8.36328C109.473 8.61068 109.316 8.87109 109.004 9.14453C108.743 9.37891 108.503 9.60677 108.281 9.82812C108.06 10.0495 107.858 10.2513 107.676 10.4336C107.493 10.6029 107.331 10.7396 107.188 10.8438C107.044 10.9479 106.927 11 106.836 11C106.771 11 106.706 10.987 106.641 10.9609C106.589 10.9349 106.536 10.8763 106.484 10.7852C106.328 10.4857 106.172 10.1732 106.016 9.84766C105.859 9.52214 105.716 9.21615 105.586 8.92969C105.469 8.64323 105.371 8.39583 105.293 8.1875C105.215 7.96615 105.176 7.81641 105.176 7.73828C105.176 7.59505 105.241 7.4388 105.371 7.26953C105.423 7.19141 105.54 7.04167 105.723 6.82031C105.918 6.59896 106.12 6.36458 106.328 6.11719C106.549 5.86979 106.751 5.64193 106.934 5.43359C107.129 5.22526 107.259 5.08854 107.324 5.02344C107.48 4.84115 107.611 4.75 107.715 4.75C107.832 4.75 107.923 4.83464 107.988 5.00391C108.027 5.09505 108.112 5.29036 108.242 5.58984C108.385 5.88932 108.535 6.21484 108.691 6.56641C108.848 6.90495 108.997 7.22396 109.141 7.52344C109.284 7.82292 109.375 8.01823 109.414 8.10938ZM112.012 21.0977C112.09 21.0977 112.155 21.1302 112.207 21.1953C112.272 21.2474 112.305 21.3255 112.305 21.4297C112.305 21.5208 112.285 21.612 112.246 21.7031C111.947 22.5625 111.667 23.3438 111.406 24.0469C111.159 24.75 110.905 25.375 110.645 25.9219C110.267 26.7422 109.902 27.3737 109.551 27.8164C109.212 28.2461 108.828 28.5326 108.398 28.6758C108.294 28.7018 108.177 28.7279 108.047 28.7539C107.917 28.7799 107.78 28.793 107.637 28.793C107.311 28.793 106.96 28.7279 106.582 28.5977C106.217 28.4674 105.872 28.2201 105.547 27.8555C105.234 27.4909 104.974 26.9831 104.766 26.332C104.557 25.668 104.453 24.8086 104.453 23.7539C104.453 22.8164 104.486 21.918 104.551 21.0586C104.616 20.1862 104.714 19.3073 104.844 18.4219C105.039 18.0182 105.273 17.6536 105.547 17.3281C105.833 16.9896 106.12 16.7031 106.406 16.4688C106.693 16.2214 106.953 16.0326 107.188 15.9023C107.435 15.7721 107.617 15.707 107.734 15.707C107.786 15.707 107.812 15.7656 107.812 15.8828C107.812 15.987 107.793 16.1693 107.754 16.4297C107.728 16.6771 107.695 17.0286 107.656 17.4844C107.617 17.9401 107.572 18.526 107.52 19.2422C107.48 19.9453 107.448 20.8047 107.422 21.8203C107.422 22.4062 107.454 22.9466 107.52 23.4414C107.598 23.9362 107.702 24.3659 107.832 24.7305C107.975 25.0951 108.145 25.3815 108.34 25.5898C108.535 25.7852 108.75 25.8828 108.984 25.8828C109.206 25.8828 109.414 25.7786 109.609 25.5703C109.805 25.349 110 25.0495 110.195 24.6719C110.391 24.2812 110.592 23.8255 110.801 23.3047C111.009 22.7708 111.23 22.1979 111.465 21.5859C111.595 21.2604 111.777 21.0977 112.012 21.0977ZM120.996 21.7031C120.697 22.7188 120.391 23.6562 120.078 24.5156C119.766 25.375 119.434 26.1172 119.082 26.7422C118.73 27.3672 118.34 27.8555 117.91 28.207C117.493 28.5586 117.018 28.7344 116.484 28.7344C115.833 28.7344 115.306 28.4089 114.902 27.7578C114.512 27.0938 114.316 26.2214 114.316 25.1406C114.316 24.6719 114.336 24.2292 114.375 23.8125C114.427 23.3958 114.479 22.9922 114.531 22.6016C114.596 22.2109 114.648 21.8333 114.688 21.4688C114.74 21.1042 114.766 20.7461 114.766 20.3945C114.766 20.0169 114.72 19.7695 114.629 19.6523C114.538 19.5352 114.421 19.4766 114.277 19.4766C114.251 19.4766 114.225 19.4831 114.199 19.4961C114.173 19.4961 114.121 19.5026 114.043 19.5156C113.978 19.5156 113.874 19.5286 113.73 19.5547C113.6 19.5677 113.418 19.5872 113.184 19.6133C113.04 19.9258 112.923 20.1927 112.832 20.4141C112.741 20.6224 112.663 20.8047 112.598 20.9609C112.533 21.1172 112.474 21.2539 112.422 21.3711C112.383 21.4753 112.344 21.5859 112.305 21.7031C112.201 21.9505 112.109 22.1068 112.031 22.1719C111.953 22.224 111.862 22.25 111.758 22.25C111.68 22.25 111.615 22.2174 111.562 22.1523C111.497 22.0872 111.465 21.9961 111.465 21.8789C111.465 21.8008 111.484 21.7096 111.523 21.6055C111.562 21.4883 111.608 21.3451 111.66 21.1758C111.725 20.9935 111.79 20.7656 111.855 20.4922C111.934 20.2188 112.012 19.8802 112.09 19.4766C111.829 19.3594 111.608 19.0859 111.426 18.6562C111.23 18.2135 111.133 17.6992 111.133 17.1133C111.133 16.6315 111.217 16.1432 111.387 15.6484C111.543 15.1536 111.738 14.7044 111.973 14.3008C112.22 13.8841 112.48 13.5456 112.754 13.2852C113.04 13.0247 113.294 12.8945 113.516 12.8945C113.802 12.8945 114.043 13.0703 114.238 13.4219C114.447 13.7604 114.551 14.151 114.551 14.5938C114.551 14.8281 114.525 15.069 114.473 15.3164C114.421 15.5508 114.362 15.7721 114.297 15.9805C114.245 16.1758 114.193 16.3581 114.141 16.5273C114.089 16.6836 114.062 16.8073 114.062 16.8984C114.062 17.0156 114.108 17.0742 114.199 17.0742C114.264 17.0742 114.382 17.0417 114.551 16.9766L115.508 16.5469C115.859 16.4036 116.159 16.332 116.406 16.332C116.823 16.332 117.096 16.4622 117.227 16.7227C117.37 16.9831 117.441 17.3672 117.441 17.875C117.441 18.0964 117.415 18.487 117.363 19.0469C117.311 19.5938 117.253 20.2057 117.188 20.8828C117.135 21.5469 117.083 22.2109 117.031 22.875C116.992 23.5391 116.973 24.0794 116.973 24.4961C116.973 24.9518 117.018 25.2904 117.109 25.5117C117.214 25.7201 117.428 25.8242 117.754 25.8242C117.988 25.8242 118.216 25.6875 118.438 25.4141C118.672 25.1406 118.893 24.7956 119.102 24.3789C119.31 23.9622 119.505 23.5065 119.688 23.0117C119.883 22.5169 120.059 22.0417 120.215 21.5859C120.332 21.2604 120.501 21.0977 120.723 21.0977C120.931 21.0977 121.035 21.2148 121.035 21.4492C121.035 21.4883 121.029 21.5273 121.016 21.5664C121.016 21.6055 121.009 21.651 120.996 21.7031ZM128.145 21.7031C127.728 22.901 127.35 23.9427 127.012 24.8281C126.686 25.7135 126.354 26.4557 126.016 27.0547C125.677 27.6406 125.312 28.0833 124.922 28.3828C124.531 28.6693 124.062 28.8125 123.516 28.8125C123.203 28.8125 122.871 28.7214 122.52 28.5391C122.168 28.3698 121.842 28.0378 121.543 27.543C121.243 27.0482 120.996 26.3581 120.801 25.4727C120.605 24.5742 120.508 23.4089 120.508 21.9766C120.508 21.599 120.521 21.1042 120.547 20.4922C120.586 19.8672 120.625 19.1771 120.664 18.4219C120.716 17.6536 120.775 16.8464 120.84 16C120.905 15.1406 120.977 14.2812 121.055 13.4219C120.99 13.4349 120.931 13.4479 120.879 13.4609C120.827 13.4609 120.768 13.4609 120.703 13.4609C120 13.5391 119.486 13.6107 119.16 13.6758C118.835 13.7279 118.639 13.7865 118.574 13.8516C118.509 13.9036 118.477 13.9688 118.477 14.0469C118.477 14.112 118.477 14.1771 118.477 14.2422C118.464 14.2943 118.444 14.3464 118.418 14.3984C118.379 14.4375 118.307 14.457 118.203 14.457C118.138 14.457 118.06 14.444 117.969 14.418C117.865 14.3789 117.767 14.3268 117.676 14.2617C117.572 14.1836 117.487 14.0924 117.422 13.9883C117.357 13.8711 117.324 13.7344 117.324 13.5781C117.324 13.4349 117.357 13.2852 117.422 13.1289C117.474 12.9727 117.546 12.8229 117.637 12.6797C117.728 12.5234 117.865 12.3346 118.047 12.1133C118.216 11.8919 118.451 11.6706 118.75 11.4492C119.036 11.2148 119.395 11 119.824 10.8047C120.254 10.6094 120.762 10.4531 121.348 10.3359C121.413 9.78906 121.478 9.30729 121.543 8.89062C121.621 8.46094 121.699 8.08333 121.777 7.75781C121.855 7.41927 121.927 7.11979 121.992 6.85938C122.07 6.58594 122.148 6.33854 122.227 6.11719C122.383 5.60938 122.578 5.22526 122.812 4.96484C123.047 4.69141 123.314 4.40495 123.613 4.10547C123.939 3.77995 124.212 3.5651 124.434 3.46094C124.668 3.34375 124.844 3.27865 124.961 3.26562C125.078 3.26562 125.182 3.30469 125.273 3.38281C125.378 3.44792 125.43 3.57161 125.43 3.75391C125.43 3.85807 125.423 3.94922 125.41 4.02734C125.397 4.09245 125.384 4.15104 125.371 4.20312C125.332 4.34635 125.267 4.60026 125.176 4.96484C125.098 5.32943 125 5.77865 124.883 6.3125C124.779 6.83333 124.668 7.42578 124.551 8.08984C124.434 8.74089 124.329 9.4375 124.238 10.1797C124.941 10.2318 125.527 10.3229 125.996 10.4531C126.478 10.5703 126.771 10.6419 126.875 10.668C127.096 10.7461 127.246 10.8177 127.324 10.8828C127.402 10.9479 127.474 11.0586 127.539 11.2148C127.591 11.319 127.65 11.4036 127.715 11.4688C127.793 11.5339 127.865 11.5924 127.93 11.6445C128.008 11.6966 128.073 11.7552 128.125 11.8203C128.177 11.8854 128.203 11.9766 128.203 12.0938C128.203 12.1979 128.177 12.3021 128.125 12.4062C128.073 12.4974 128.014 12.556 127.949 12.582C127.858 12.6341 127.689 12.6862 127.441 12.7383C127.194 12.7773 126.895 12.8229 126.543 12.875C126.191 12.9141 125.788 12.9596 125.332 13.0117C124.889 13.0508 124.427 13.0964 123.945 13.1484C123.789 14.763 123.633 16.319 123.477 17.8164C123.333 19.3138 123.262 20.6484 123.262 21.8203C123.262 22.4193 123.294 22.9661 123.359 23.4609C123.438 23.9557 123.548 24.3854 123.691 24.75C123.835 25.1016 124.004 25.375 124.199 25.5703C124.408 25.7656 124.642 25.8633 124.902 25.8633C125.137 25.8633 125.352 25.7591 125.547 25.5508C125.742 25.3294 125.938 25.0299 126.133 24.6523C126.328 24.2747 126.523 23.8255 126.719 23.3047C126.927 22.7839 127.148 22.2109 127.383 21.5859C127.5 21.2604 127.669 21.0977 127.891 21.0977C128.099 21.0977 128.203 21.2148 128.203 21.4492C128.203 21.4883 128.197 21.5339 128.184 21.5859C128.171 21.638 128.158 21.6771 128.145 21.7031ZM135.332 21.7031C134.915 22.901 134.538 23.9427 134.199 24.8281C133.874 25.7135 133.542 26.4557 133.203 27.0547C132.865 27.6406 132.5 28.0833 132.109 28.3828C131.719 28.6693 131.25 28.8125 130.703 28.8125C130.391 28.8125 130.059 28.7214 129.707 28.5391C129.355 28.3698 129.03 28.0378 128.73 27.543C128.431 27.0482 128.184 26.3581 127.988 25.4727C127.793 24.5742 127.695 23.4089 127.695 21.9766C127.695 21.599 127.708 21.1042 127.734 20.4922C127.773 19.8672 127.812 19.1771 127.852 18.4219C127.904 17.6536 127.962 16.8464 128.027 16C128.092 15.1406 128.164 14.2812 128.242 13.4219C128.177 13.4349 128.118 13.4479 128.066 13.4609C128.014 13.4609 127.956 13.4609 127.891 13.4609C127.188 13.5391 126.673 13.6107 126.348 13.6758C126.022 13.7279 125.827 13.7865 125.762 13.8516C125.697 13.9036 125.664 13.9688 125.664 14.0469C125.664 14.112 125.664 14.1771 125.664 14.2422C125.651 14.2943 125.632 14.3464 125.605 14.3984C125.566 14.4375 125.495 14.457 125.391 14.457C125.326 14.457 125.247 14.444 125.156 14.418C125.052 14.3789 124.954 14.3268 124.863 14.2617C124.759 14.1836 124.674 14.0924 124.609 13.9883C124.544 13.8711 124.512 13.7344 124.512 13.5781C124.512 13.4349 124.544 13.2852 124.609 13.1289C124.661 12.9727 124.733 12.8229 124.824 12.6797C124.915 12.5234 125.052 12.3346 125.234 12.1133C125.404 11.8919 125.638 11.6706 125.938 11.4492C126.224 11.2148 126.582 11 127.012 10.8047C127.441 10.6094 127.949 10.4531 128.535 10.3359C128.6 9.78906 128.665 9.30729 128.73 8.89062C128.809 8.46094 128.887 8.08333 128.965 7.75781C129.043 7.41927 129.115 7.11979 129.18 6.85938C129.258 6.58594 129.336 6.33854 129.414 6.11719C129.57 5.60938 129.766 5.22526 130 4.96484C130.234 4.69141 130.501 4.40495 130.801 4.10547C131.126 3.77995 131.4 3.5651 131.621 3.46094C131.855 3.34375 132.031 3.27865 132.148 3.26562C132.266 3.26562 132.37 3.30469 132.461 3.38281C132.565 3.44792 132.617 3.57161 132.617 3.75391C132.617 3.85807 132.611 3.94922 132.598 4.02734C132.585 4.09245 132.572 4.15104 132.559 4.20312C132.52 4.34635 132.454 4.60026 132.363 4.96484C132.285 5.32943 132.188 5.77865 132.07 6.3125C131.966 6.83333 131.855 7.42578 131.738 8.08984C131.621 8.74089 131.517 9.4375 131.426 10.1797C132.129 10.2318 132.715 10.3229 133.184 10.4531C133.665 10.5703 133.958 10.6419 134.062 10.668C134.284 10.7461 134.434 10.8177 134.512 10.8828C134.59 10.9479 134.661 11.0586 134.727 11.2148C134.779 11.319 134.837 11.4036 134.902 11.4688C134.98 11.5339 135.052 11.5924 135.117 11.6445C135.195 11.6966 135.26 11.7552 135.312 11.8203C135.365 11.8854 135.391 11.9766 135.391 12.0938C135.391 12.1979 135.365 12.3021 135.312 12.4062C135.26 12.4974 135.202 12.556 135.137 12.582C135.046 12.6341 134.876 12.6862 134.629 12.7383C134.382 12.7773 134.082 12.8229 133.73 12.875C133.379 12.9141 132.975 12.9596 132.52 13.0117C132.077 13.0508 131.615 13.0964 131.133 13.1484C130.977 14.763 130.82 16.319 130.664 17.8164C130.521 19.3138 130.449 20.6484 130.449 21.8203C130.449 22.4193 130.482 22.9661 130.547 23.4609C130.625 23.9557 130.736 24.3854 130.879 24.75C131.022 25.1016 131.191 25.375 131.387 25.5703C131.595 25.7656 131.829 25.8633 132.09 25.8633C132.324 25.8633 132.539 25.7591 132.734 25.5508C132.93 25.3294 133.125 25.0299 133.32 24.6523C133.516 24.2747 133.711 23.8255 133.906 23.3047C134.115 22.7839 134.336 22.2109 134.57 21.5859C134.688 21.2604 134.857 21.0977 135.078 21.0977C135.286 21.0977 135.391 21.2148 135.391 21.4492C135.391 21.4883 135.384 21.5339 135.371 21.5859C135.358 21.638 135.345 21.6771 135.332 21.7031ZM139.766 8.10938C139.805 8.1875 139.824 8.27214 139.824 8.36328C139.824 8.61068 139.668 8.87109 139.355 9.14453C139.095 9.37891 138.854 9.60677 138.633 9.82812C138.411 10.0495 138.21 10.2513 138.027 10.4336C137.845 10.6029 137.682 10.7396 137.539 10.8438C137.396 10.9479 137.279 11 137.188 11C137.122 11 137.057 10.987 136.992 10.9609C136.94 10.9349 136.888 10.8763 136.836 10.7852C136.68 10.4857 136.523 10.1732 136.367 9.84766C136.211 9.52214 136.068 9.21615 135.938 8.92969C135.82 8.64323 135.723 8.39583 135.645 8.1875C135.566 7.96615 135.527 7.81641 135.527 7.73828C135.527 7.59505 135.592 7.4388 135.723 7.26953C135.775 7.19141 135.892 7.04167 136.074 6.82031C136.27 6.59896 136.471 6.36458 136.68 6.11719C136.901 5.86979 137.103 5.64193 137.285 5.43359C137.48 5.22526 137.611 5.08854 137.676 5.02344C137.832 4.84115 137.962 4.75 138.066 4.75C138.184 4.75 138.275 4.83464 138.34 5.00391C138.379 5.09505 138.464 5.29036 138.594 5.58984C138.737 5.88932 138.887 6.21484 139.043 6.56641C139.199 6.90495 139.349 7.22396 139.492 7.52344C139.635 7.82292 139.727 8.01823 139.766 8.10938ZM142.363 21.0977C142.441 21.0977 142.507 21.1302 142.559 21.1953C142.624 21.2474 142.656 21.3255 142.656 21.4297C142.656 21.5208 142.637 21.612 142.598 21.7031C142.298 22.5625 142.018 23.3438 141.758 24.0469C141.51 24.75 141.257 25.375 140.996 25.9219C140.618 26.7422 140.254 27.3737 139.902 27.8164C139.564 28.2461 139.18 28.5326 138.75 28.6758C138.646 28.7018 138.529 28.7279 138.398 28.7539C138.268 28.7799 138.132 28.793 137.988 28.793C137.663 28.793 137.311 28.7279 136.934 28.5977C136.569 28.4674 136.224 28.2201 135.898 27.8555C135.586 27.4909 135.326 26.9831 135.117 26.332C134.909 25.668 134.805 24.8086 134.805 23.7539C134.805 22.8164 134.837 21.918 134.902 21.0586C134.967 20.1862 135.065 19.3073 135.195 18.4219C135.391 18.0182 135.625 17.6536 135.898 17.3281C136.185 16.9896 136.471 16.7031 136.758 16.4688C137.044 16.2214 137.305 16.0326 137.539 15.9023C137.786 15.7721 137.969 15.707 138.086 15.707C138.138 15.707 138.164 15.7656 138.164 15.8828C138.164 15.987 138.145 16.1693 138.105 16.4297C138.079 16.6771 138.047 17.0286 138.008 17.4844C137.969 17.9401 137.923 18.526 137.871 19.2422C137.832 19.9453 137.799 20.8047 137.773 21.8203C137.773 22.4062 137.806 22.9466 137.871 23.4414C137.949 23.9362 138.053 24.3659 138.184 24.7305C138.327 25.0951 138.496 25.3815 138.691 25.5898C138.887 25.7852 139.102 25.8828 139.336 25.8828C139.557 25.8828 139.766 25.7786 139.961 25.5703C140.156 25.349 140.352 25.0495 140.547 24.6719C140.742 24.2812 140.944 23.8255 141.152 23.3047C141.361 22.7708 141.582 22.1979 141.816 21.5859C141.947 21.2604 142.129 21.0977 142.363 21.0977ZM149.18 21.0977C149.258 21.0977 149.323 21.1302 149.375 21.1953C149.44 21.2474 149.473 21.3255 149.473 21.4297C149.473 21.5208 149.453 21.612 149.414 21.7031C149.154 22.4583 148.9 23.1549 148.652 23.793C148.418 24.418 148.184 24.9974 147.949 25.5312C147.728 26.0391 147.513 26.4753 147.305 26.8398C147.109 27.2044 146.914 27.5104 146.719 27.7578C146.536 28.0052 146.348 28.207 146.152 28.3633C145.97 28.5065 145.781 28.6107 145.586 28.6758C145.391 28.7409 145.163 28.7734 144.902 28.7734C144.616 28.7734 144.303 28.7083 143.965 28.5781C143.626 28.4609 143.307 28.2266 143.008 27.875C142.721 27.5234 142.48 27.0352 142.285 26.4102C142.09 25.7721 141.992 24.9453 141.992 23.9297C141.992 23.6562 142.005 23.194 142.031 22.543C142.07 21.8919 142.116 21.1107 142.168 20.1992C142.233 19.2747 142.305 18.2331 142.383 17.0742C142.474 15.9154 142.572 14.6914 142.676 13.4023C142.741 12.6081 142.819 11.7422 142.91 10.8047C143.014 9.85417 143.118 8.92969 143.223 8.03125C143.327 7.13281 143.431 6.30599 143.535 5.55078C143.639 4.79557 143.73 4.20312 143.809 3.77344C143.9 3.31771 144.076 2.95964 144.336 2.69922C144.596 2.4388 144.889 2.15885 145.215 1.85938C145.332 1.74219 145.456 1.61849 145.586 1.48828C145.716 1.34505 145.846 1.21484 145.977 1.09766C146.107 0.980469 146.23 0.882812 146.348 0.804688C146.478 0.713542 146.602 0.667969 146.719 0.667969C146.901 0.667969 146.992 0.759115 146.992 0.941406C146.992 1.08464 146.96 1.34505 146.895 1.72266C146.829 2.10026 146.738 2.70573 146.621 3.53906C146.504 4.3724 146.361 5.4987 146.191 6.91797C146.035 8.32422 145.866 10.1341 145.684 12.3477C145.645 12.7904 145.599 13.3177 145.547 13.9297C145.495 14.5417 145.443 15.1927 145.391 15.8828C145.339 16.5599 145.286 17.2565 145.234 17.9727C145.195 18.6758 145.156 19.3464 145.117 19.9844C145.078 20.6094 145.046 21.1823 145.02 21.7031C144.993 22.224 144.98 22.6406 144.98 22.9531C144.98 23.8516 145.072 24.5612 145.254 25.082C145.449 25.5898 145.768 25.8438 146.211 25.8438C146.458 25.8438 146.68 25.7331 146.875 25.5117C147.07 25.2904 147.259 24.9909 147.441 24.6133C147.624 24.2227 147.812 23.7734 148.008 23.2656C148.203 22.7448 148.418 22.1849 148.652 21.5859C148.717 21.4297 148.796 21.3125 148.887 21.2344C148.978 21.1432 149.076 21.0977 149.18 21.0977ZM159.668 21.7031C159.277 22.875 158.913 23.9036 158.574 24.7891C158.236 25.6615 157.897 26.3971 157.559 26.9961C157.22 27.582 156.855 28.0247 156.465 28.3242C156.087 28.6237 155.664 28.7734 155.195 28.7734C154.87 28.7734 154.596 28.6693 154.375 28.4609C154.167 28.2526 153.991 28.0182 153.848 27.7578C153.704 27.4974 153.594 27.25 153.516 27.0156C153.451 26.7682 153.405 26.6055 153.379 26.5273C153.366 26.5013 153.353 26.4622 153.34 26.4102C153.327 26.3581 153.307 26.332 153.281 26.332C153.255 26.332 153.229 26.3516 153.203 26.3906C153.19 26.4297 153.171 26.4688 153.145 26.5078C153.105 26.599 153.001 26.7682 152.832 27.0156C152.663 27.263 152.448 27.5169 152.188 27.7773C151.94 28.0378 151.654 28.2721 151.328 28.4805C151.003 28.6758 150.651 28.7734 150.273 28.7734C149.974 28.7734 149.681 28.6758 149.395 28.4805C149.121 28.2852 148.88 28.0247 148.672 27.6992C148.464 27.3607 148.301 26.9635 148.184 26.5078C148.053 26.0521 147.988 25.5638 147.988 25.043C147.988 23.9102 148.171 22.849 148.535 21.8594C148.887 20.8568 149.466 19.8542 150.273 18.8516C150.664 18.3698 151.074 17.9401 151.504 17.5625C151.947 17.1849 152.376 16.8724 152.793 16.625C153.21 16.3646 153.607 16.1693 153.984 16.0391C154.375 15.9089 154.707 15.8438 154.98 15.8438C155.163 15.8438 155.345 15.8763 155.527 15.9414C155.71 16.0065 155.872 16.1172 156.016 16.2734C156.159 16.4297 156.27 16.638 156.348 16.8984C156.439 17.1458 156.484 17.4518 156.484 17.8164C156.484 18.207 156.419 18.6302 156.289 19.0859C156.172 19.5417 155.99 19.9714 155.742 20.375C155.508 20.7656 155.215 21.0911 154.863 21.3516C154.512 21.612 154.115 21.7422 153.672 21.7422C153.398 21.7422 153.262 21.638 153.262 21.4297C153.262 21.2865 153.294 21.0521 153.359 20.7266C153.438 20.401 153.477 20.0885 153.477 19.7891C153.477 19.6719 153.47 19.5352 153.457 19.3789C153.444 19.2096 153.411 19.0469 153.359 18.8906C153.307 18.7344 153.236 18.6042 153.145 18.5C153.053 18.3958 152.93 18.3438 152.773 18.3438C152.422 18.3438 152.116 18.5065 151.855 18.832C151.595 19.1576 151.374 19.5547 151.191 20.0234C151.022 20.4922 150.892 20.9805 150.801 21.4883C150.71 21.9961 150.664 22.4323 150.664 22.7969C150.664 23.2917 150.703 23.7083 150.781 24.0469C150.859 24.3724 150.964 24.6393 151.094 24.8477C151.224 25.043 151.374 25.1862 151.543 25.2773C151.712 25.3555 151.888 25.3945 152.07 25.3945C152.5 25.3945 152.884 25.2513 153.223 24.9648C153.561 24.6654 153.854 24.3398 154.102 23.9883C154.349 23.6237 154.551 23.2982 154.707 23.0117C154.876 22.7122 155.013 22.5625 155.117 22.5625C155.234 22.5625 155.312 22.6992 155.352 22.9727C155.43 23.5586 155.514 24.0404 155.605 24.418C155.697 24.7956 155.788 25.0951 155.879 25.3164C155.97 25.5247 156.061 25.6745 156.152 25.7656C156.257 25.8438 156.361 25.8828 156.465 25.8828C156.66 25.8828 156.855 25.7721 157.051 25.5508C157.246 25.3164 157.441 25.0039 157.637 24.6133C157.832 24.2227 158.034 23.7669 158.242 23.2461C158.451 22.7253 158.672 22.1719 158.906 21.5859C159.049 21.2604 159.219 21.0977 159.414 21.0977C159.609 21.0977 159.707 21.2148 159.707 21.4492C159.707 21.5404 159.694 21.625 159.668 21.7031ZM171.152 21.0977C171.361 21.0977 171.465 21.2083 171.465 21.4297C171.465 21.5208 171.445 21.612 171.406 21.7031C170.99 22.862 170.612 23.8841 170.273 24.7695C169.935 25.6419 169.603 26.3776 169.277 26.9766C168.952 27.5625 168.607 28.0052 168.242 28.3047C167.891 28.6042 167.493 28.7539 167.051 28.7539C166.478 28.7539 166.029 28.6107 165.703 28.3242C165.378 28.0247 165.137 27.6602 164.98 27.2305C164.824 26.8008 164.727 26.3451 164.688 25.8633C164.648 25.3685 164.629 24.9258 164.629 24.5352C164.629 23.832 164.648 23.168 164.688 22.543C164.74 21.9049 164.766 21.4232 164.766 21.0977C164.766 20.6029 164.629 20.3555 164.355 20.3555C164.147 20.3555 163.991 20.4987 163.887 20.7852C163.822 20.9414 163.724 21.2279 163.594 21.6445C163.464 22.0612 163.307 22.5365 163.125 23.0703C162.956 23.5911 162.78 24.138 162.598 24.7109C162.415 25.2708 162.246 25.7721 162.09 26.2148C161.882 26.7878 161.686 27.2565 161.504 27.6211C161.335 27.9727 161.172 28.2461 161.016 28.4414C160.859 28.6367 160.703 28.7669 160.547 28.832C160.391 28.8971 160.228 28.9297 160.059 28.9297C159.915 28.9297 159.766 28.9036 159.609 28.8516C159.466 28.7995 159.336 28.7083 159.219 28.5781C159.102 28.4479 159.004 28.2786 158.926 28.0703C158.848 27.849 158.809 27.569 158.809 27.2305C158.809 26.8789 158.835 26.3451 158.887 25.6289C158.926 24.8997 158.984 24.0599 159.062 23.1094C159.128 22.1589 159.206 21.1367 159.297 20.043C159.401 18.9492 159.505 17.849 159.609 16.7422C159.714 15.6354 159.811 14.5677 159.902 13.5391C160.007 12.4974 160.098 11.5664 160.176 10.7461C160.319 9.3138 160.462 8.04427 160.605 6.9375C160.762 5.83073 160.964 4.96484 161.211 4.33984C161.289 4.14453 161.374 3.98828 161.465 3.87109C161.556 3.75391 161.654 3.64323 161.758 3.53906C161.875 3.4349 161.999 3.33073 162.129 3.22656C162.272 3.10938 162.435 2.95964 162.617 2.77734C162.956 2.45182 163.21 2.22396 163.379 2.09375C163.561 1.96354 163.717 1.89844 163.848 1.89844C163.965 1.89844 164.089 1.94401 164.219 2.03516C164.362 2.11328 164.434 2.26953 164.434 2.50391C164.434 2.55599 164.414 2.66016 164.375 2.81641C164.336 2.97266 164.264 3.29167 164.16 3.77344C164.056 4.25521 163.939 4.84115 163.809 5.53125C163.678 6.22135 163.542 6.99609 163.398 7.85547C163.268 8.70182 163.151 9.58073 163.047 10.4922C162.917 11.5078 162.793 12.5299 162.676 13.5586C162.572 14.5872 162.474 15.5833 162.383 16.5469C162.292 17.4974 162.207 18.3958 162.129 19.2422C162.051 20.0755 161.986 20.8177 161.934 21.4688C161.882 22.1068 161.842 22.6341 161.816 23.0508C161.79 23.4544 161.777 23.6953 161.777 23.7734C161.777 23.9818 161.79 24.0859 161.816 24.0859C161.829 24.0859 161.882 23.9622 161.973 23.7148C162.077 23.4544 162.201 23.1224 162.344 22.7188C162.487 22.3151 162.65 21.8659 162.832 21.3711C163.014 20.8633 163.21 20.3555 163.418 19.8477C163.626 19.3398 163.841 18.8646 164.062 18.4219C164.284 17.9792 164.505 17.6081 164.727 17.3086C164.987 16.957 165.26 16.6966 165.547 16.5273C165.833 16.3581 166.113 16.2734 166.387 16.2734C166.895 16.2734 167.266 16.5013 167.5 16.957C167.747 17.3997 167.871 17.9661 167.871 18.6562C167.871 18.9557 167.845 19.3398 167.793 19.8086C167.754 20.2773 167.708 20.7721 167.656 21.293C167.617 21.8008 167.572 22.3021 167.52 22.7969C167.48 23.2786 167.461 23.6888 167.461 24.0273C167.461 24.3919 167.48 24.6914 167.52 24.9258C167.559 25.1602 167.611 25.349 167.676 25.4922C167.754 25.6354 167.832 25.7396 167.91 25.8047C168.001 25.8568 168.099 25.8828 168.203 25.8828C168.411 25.8828 168.607 25.7721 168.789 25.5508C168.984 25.3164 169.18 25.0039 169.375 24.6133C169.57 24.2227 169.772 23.7669 169.98 23.2461C170.189 22.7122 170.417 22.1458 170.664 21.5469C170.729 21.3776 170.801 21.2604 170.879 21.1953C170.97 21.1302 171.061 21.0977 171.152 21.0977ZM178.574 21.7031C178.158 22.901 177.78 23.9427 177.441 24.8281C177.116 25.7135 176.784 26.4557 176.445 27.0547C176.107 27.6406 175.742 28.0833 175.352 28.3828C174.961 28.6693 174.492 28.8125 173.945 28.8125C173.633 28.8125 173.301 28.7214 172.949 28.5391C172.598 28.3698 172.272 28.0378 171.973 27.543C171.673 27.0482 171.426 26.3581 171.23 25.4727C171.035 24.5742 170.938 23.4089 170.938 21.9766C170.938 21.599 170.951 21.1042 170.977 20.4922C171.016 19.8672 171.055 19.1771 171.094 18.4219C171.146 17.6536 171.204 16.8464 171.27 16C171.335 15.1406 171.406 14.2812 171.484 13.4219C171.419 13.4349 171.361 13.4479 171.309 13.4609C171.257 13.4609 171.198 13.4609 171.133 13.4609C170.43 13.5391 169.915 13.6107 169.59 13.6758C169.264 13.7279 169.069 13.7865 169.004 13.8516C168.939 13.9036 168.906 13.9688 168.906 14.0469C168.906 14.112 168.906 14.1771 168.906 14.2422C168.893 14.2943 168.874 14.3464 168.848 14.3984C168.809 14.4375 168.737 14.457 168.633 14.457C168.568 14.457 168.49 14.444 168.398 14.418C168.294 14.3789 168.197 14.3268 168.105 14.2617C168.001 14.1836 167.917 14.0924 167.852 13.9883C167.786 13.8711 167.754 13.7344 167.754 13.5781C167.754 13.4349 167.786 13.2852 167.852 13.1289C167.904 12.9727 167.975 12.8229 168.066 12.6797C168.158 12.5234 168.294 12.3346 168.477 12.1133C168.646 11.8919 168.88 11.6706 169.18 11.4492C169.466 11.2148 169.824 11 170.254 10.8047C170.684 10.6094 171.191 10.4531 171.777 10.3359C171.842 9.78906 171.908 9.30729 171.973 8.89062C172.051 8.46094 172.129 8.08333 172.207 7.75781C172.285 7.41927 172.357 7.11979 172.422 6.85938C172.5 6.58594 172.578 6.33854 172.656 6.11719C172.812 5.60938 173.008 5.22526 173.242 4.96484C173.477 4.69141 173.743 4.40495 174.043 4.10547C174.368 3.77995 174.642 3.5651 174.863 3.46094C175.098 3.34375 175.273 3.27865 175.391 3.26562C175.508 3.26562 175.612 3.30469 175.703 3.38281C175.807 3.44792 175.859 3.57161 175.859 3.75391C175.859 3.85807 175.853 3.94922 175.84 4.02734C175.827 4.09245 175.814 4.15104 175.801 4.20312C175.762 4.34635 175.697 4.60026 175.605 4.96484C175.527 5.32943 175.43 5.77865 175.312 6.3125C175.208 6.83333 175.098 7.42578 174.98 8.08984C174.863 8.74089 174.759 9.4375 174.668 10.1797C175.371 10.2318 175.957 10.3229 176.426 10.4531C176.908 10.5703 177.201 10.6419 177.305 10.668C177.526 10.7461 177.676 10.8177 177.754 10.8828C177.832 10.9479 177.904 11.0586 177.969 11.2148C178.021 11.319 178.079 11.4036 178.145 11.4688C178.223 11.5339 178.294 11.5924 178.359 11.6445C178.438 11.6966 178.503 11.7552 178.555 11.8203C178.607 11.8854 178.633 11.9766 178.633 12.0938C178.633 12.1979 178.607 12.3021 178.555 12.4062C178.503 12.4974 178.444 12.556 178.379 12.582C178.288 12.6341 178.118 12.6862 177.871 12.7383C177.624 12.7773 177.324 12.8229 176.973 12.875C176.621 12.9141 176.217 12.9596 175.762 13.0117C175.319 13.0508 174.857 13.0964 174.375 13.1484C174.219 14.763 174.062 16.319 173.906 17.8164C173.763 19.3138 173.691 20.6484 173.691 21.8203C173.691 22.4193 173.724 22.9661 173.789 23.4609C173.867 23.9557 173.978 24.3854 174.121 24.75C174.264 25.1016 174.434 25.375 174.629 25.5703C174.837 25.7656 175.072 25.8633 175.332 25.8633C175.566 25.8633 175.781 25.7591 175.977 25.5508C176.172 25.3294 176.367 25.0299 176.562 24.6523C176.758 24.2747 176.953 23.8255 177.148 23.3047C177.357 22.7839 177.578 22.2109 177.812 21.5859C177.93 21.2604 178.099 21.0977 178.32 21.0977C178.529 21.0977 178.633 21.2148 178.633 21.4492C178.633 21.4883 178.626 21.5339 178.613 21.5859C178.6 21.638 178.587 21.6771 178.574 21.7031ZM183.008 8.10938C183.047 8.1875 183.066 8.27214 183.066 8.36328C183.066 8.61068 182.91 8.87109 182.598 9.14453C182.337 9.37891 182.096 9.60677 181.875 9.82812C181.654 10.0495 181.452 10.2513 181.27 10.4336C181.087 10.6029 180.924 10.7396 180.781 10.8438C180.638 10.9479 180.521 11 180.43 11C180.365 11 180.299 10.987 180.234 10.9609C180.182 10.9349 180.13 10.8763 180.078 10.7852C179.922 10.4857 179.766 10.1732 179.609 9.84766C179.453 9.52214 179.31 9.21615 179.18 8.92969C179.062 8.64323 178.965 8.39583 178.887 8.1875C178.809 7.96615 178.77 7.81641 178.77 7.73828C178.77 7.59505 178.835 7.4388 178.965 7.26953C179.017 7.19141 179.134 7.04167 179.316 6.82031C179.512 6.59896 179.714 6.36458 179.922 6.11719C180.143 5.86979 180.345 5.64193 180.527 5.43359C180.723 5.22526 180.853 5.08854 180.918 5.02344C181.074 4.84115 181.204 4.75 181.309 4.75C181.426 4.75 181.517 4.83464 181.582 5.00391C181.621 5.09505 181.706 5.29036 181.836 5.58984C181.979 5.88932 182.129 6.21484 182.285 6.56641C182.441 6.90495 182.591 7.22396 182.734 7.52344C182.878 7.82292 182.969 8.01823 183.008 8.10938ZM185.605 21.0977C185.684 21.0977 185.749 21.1302 185.801 21.1953C185.866 21.2474 185.898 21.3255 185.898 21.4297C185.898 21.5208 185.879 21.612 185.84 21.7031C185.54 22.5625 185.26 23.3438 185 24.0469C184.753 24.75 184.499 25.375 184.238 25.9219C183.861 26.7422 183.496 27.3737 183.145 27.8164C182.806 28.2461 182.422 28.5326 181.992 28.6758C181.888 28.7018 181.771 28.7279 181.641 28.7539C181.51 28.7799 181.374 28.793 181.23 28.793C180.905 28.793 180.553 28.7279 180.176 28.5977C179.811 28.4674 179.466 28.2201 179.141 27.8555C178.828 27.4909 178.568 26.9831 178.359 26.332C178.151 25.668 178.047 24.8086 178.047 23.7539C178.047 22.8164 178.079 21.918 178.145 21.0586C178.21 20.1862 178.307 19.3073 178.438 18.4219C178.633 18.0182 178.867 17.6536 179.141 17.3281C179.427 16.9896 179.714 16.7031 180 16.4688C180.286 16.2214 180.547 16.0326 180.781 15.9023C181.029 15.7721 181.211 15.707 181.328 15.707C181.38 15.707 181.406 15.7656 181.406 15.8828C181.406 15.987 181.387 16.1693 181.348 16.4297C181.322 16.6771 181.289 17.0286 181.25 17.4844C181.211 17.9401 181.165 18.526 181.113 19.2422C181.074 19.9453 181.042 20.8047 181.016 21.8203C181.016 22.4062 181.048 22.9466 181.113 23.4414C181.191 23.9362 181.296 24.3659 181.426 24.7305C181.569 25.0951 181.738 25.3815 181.934 25.5898C182.129 25.7852 182.344 25.8828 182.578 25.8828C182.799 25.8828 183.008 25.7786 183.203 25.5703C183.398 25.349 183.594 25.0495 183.789 24.6719C183.984 24.2812 184.186 23.8255 184.395 23.3047C184.603 22.7708 184.824 22.1979 185.059 21.5859C185.189 21.2604 185.371 21.0977 185.605 21.0977Z" fill="white"/>
</svg>
