<svg xmlns="http://www.w3.org/2000/svg" viewBox="0 0 112.72 21.81"><path fill="#e70641" d="M11.97.5c6.08.52 12.79 3.61 16.62 7.99 4.9 5.61 3.21 11.23-3.77 12.54-6.98 1.31-16.61-2.17-21.52-7.79-3.75-4.3-3.64-8.59-.25-10.96l19.41 14.34L11.97.5z"/><path d="M107.88 21l-2.44-9.8c-.35-1.16-.49-2.33-.73-3.49h-.05c-.21 1.19-.3 2.36-.62 3.55l-2.47 9.75h-4.22L103.01.58h3.3L112.22 21h-4.33zM43.42.58l2.44 9.8c.35 1.16.49 2.33.73 3.49h.05c.21-1.19.3-2.36.62-3.55L49.73.58h4.23L48.3 21h-3.31L39.09.58h4.33zM61.02.58V21h-4.04V.58h4.04zM83.84.58l1.98 12.05h.05L87.49.58h5.42L95.05 21h-4.14l-.98-14.71h-.05l-.65 5.04L87.5 21h-3.11l-1.98-9.78-.68-4.55v-.38h-.05L81.09 21h-4.33L78.55.58h5.31zM71.03.58c-.69.49-1.23 1.34-1.58 2.21-1.06 2.54.08 4.5 1.07 6.22.14.25.3.51.44.77 2.18 3.74 3.04 6.49 1.41 10.41-.12.28-.38.8-.38.8h-4.86c.55-.44 1.16-1.13 1.48-1.93 1.12-2.7-.2-5.16-1.48-7.54-1.53-2.87-3.12-5.83-1.44-9.9.16-.38.51-1.04.51-1.04h4.83z"/></svg>